<mxfile host="app.diagrams.net" modified="2023-06-17T04:31:41.592Z" agent="Mozilla/5.0 (Macintosh; Intel Mac OS X 10_15_7) AppleWebKit/537.36 (KHTML, like Gecko) Chrome/114.0.0.0 Safari/537.36" etag="SOZL2yzQoarxkp8wxe3n" version="21.4.0" type="github">
  <diagram name="第 1 页" id="bxmQuoc_s092ykwbik4G">
    <mxGraphModel dx="1306" dy="740" grid="1" gridSize="10" guides="1" tooltips="1" connect="1" arrows="1" fold="1" page="1" pageScale="1" pageWidth="827" pageHeight="1169" math="0" shadow="0">
      <root>
        <mxCell id="0" />
        <mxCell id="1" parent="0" />
        <mxCell id="F27UzN-mEICpg0OeY6OQ-1" value="北极星Server" style="rounded=1;whiteSpace=wrap;html=1;fillColor=none;strokeWidth=1.5;" vertex="1" parent="1">
          <mxGeometry x="480" y="340" width="100" height="40" as="geometry" />
        </mxCell>
        <mxCell id="F27UzN-mEICpg0OeY6OQ-4" value="" style="rounded=0;whiteSpace=wrap;html=1;fillColor=none;strokeWidth=1.5;" vertex="1" parent="1">
          <mxGeometry x="230" y="490" width="100" height="210" as="geometry" />
        </mxCell>
        <mxCell id="F27UzN-mEICpg0OeY6OQ-5" value="定时同步" style="rounded=1;whiteSpace=wrap;html=1;fillColor=none;strokeWidth=1.5;" vertex="1" parent="1">
          <mxGeometry x="230" y="340" width="100" height="40" as="geometry" />
        </mxCell>
        <mxCell id="F27UzN-mEICpg0OeY6OQ-6" value="" style="rounded=0;whiteSpace=wrap;html=1;fillColor=none;strokeWidth=1.5;" vertex="1" parent="1">
          <mxGeometry x="480" y="490" width="100" height="210" as="geometry" />
        </mxCell>
        <mxCell id="F27UzN-mEICpg0OeY6OQ-8" value="北极星SDK" style="rounded=0;whiteSpace=wrap;html=1;fillColor=none;strokeWidth=1.5;" vertex="1" parent="1">
          <mxGeometry x="490" y="500" width="80" height="40" as="geometry" />
        </mxCell>
        <mxCell id="F27UzN-mEICpg0OeY6OQ-9" value="北极星SDK" style="rounded=0;whiteSpace=wrap;html=1;fillColor=none;strokeWidth=1.5;" vertex="1" parent="1">
          <mxGeometry x="490" y="545" width="80" height="40" as="geometry" />
        </mxCell>
        <mxCell id="F27UzN-mEICpg0OeY6OQ-10" value="北极星SDK" style="rounded=0;whiteSpace=wrap;html=1;fillColor=none;strokeWidth=1.5;" vertex="1" parent="1">
          <mxGeometry x="490" y="650" width="80" height="40" as="geometry" />
        </mxCell>
        <mxCell id="F27UzN-mEICpg0OeY6OQ-11" value="北极星SDK" style="rounded=0;whiteSpace=wrap;html=1;fillColor=none;strokeWidth=1.5;" vertex="1" parent="1">
          <mxGeometry x="240" y="500" width="80" height="40" as="geometry" />
        </mxCell>
        <mxCell id="F27UzN-mEICpg0OeY6OQ-12" value="北极星SDK" style="rounded=0;whiteSpace=wrap;html=1;fillColor=none;strokeWidth=1.5;" vertex="1" parent="1">
          <mxGeometry x="240" y="545" width="80" height="40" as="geometry" />
        </mxCell>
        <mxCell id="F27UzN-mEICpg0OeY6OQ-13" value="北极星SDK" style="rounded=0;whiteSpace=wrap;html=1;fillColor=none;strokeWidth=1.5;" vertex="1" parent="1">
          <mxGeometry x="240" y="650" width="80" height="40" as="geometry" />
        </mxCell>
        <mxCell id="F27UzN-mEICpg0OeY6OQ-14" value="主调集群" style="rounded=0;whiteSpace=wrap;html=1;fillColor=none;strokeWidth=1.5;strokeColor=none;" vertex="1" parent="1">
          <mxGeometry x="240" y="600" width="80" height="40" as="geometry" />
        </mxCell>
        <mxCell id="F27UzN-mEICpg0OeY6OQ-15" value="被调集群" style="rounded=0;whiteSpace=wrap;html=1;fillColor=none;strokeWidth=1.5;strokeColor=none;" vertex="1" parent="1">
          <mxGeometry x="490" y="600" width="80" height="40" as="geometry" />
        </mxCell>
      </root>
    </mxGraphModel>
  </diagram>
</mxfile>
